<mxfile host="app.diagrams.net" modified="2023-03-03T10:31:20.297Z" agent="5.0 (Windows NT 10.0; Win64; x64) AppleWebKit/537.36 (KHTML, like Gecko) Chrome/110.0.0.0 Safari/537.36 Edg/110.0.1587.57" etag="lvRXdd1KIIUfS0vmrMu7" version="21.0.2" type="github">
  <diagram name="Страница 1" id="LNBvrnXekOGtb0KDi-wn">
    <mxGraphModel dx="1789" dy="1489" grid="1" gridSize="10" guides="1" tooltips="1" connect="1" arrows="1" fold="1" page="0" pageScale="1" pageWidth="827" pageHeight="1169" math="0" shadow="0">
      <root>
        <mxCell id="0" />
        <mxCell id="1" parent="0" />
        <mxCell id="ATN1gTDINGQfQ9HEiWbg-6" value="" style="edgeStyle=none;curved=1;rounded=1;orthogonalLoop=1;jettySize=auto;html=1;fontSize=12;startSize=8;endSize=8;labelBackgroundColor=none;strokeColor=#A8201A;fontColor=default;" edge="1" parent="1" source="ATN1gTDINGQfQ9HEiWbg-1" target="ATN1gTDINGQfQ9HEiWbg-4">
          <mxGeometry relative="1" as="geometry" />
        </mxCell>
        <mxCell id="ATN1gTDINGQfQ9HEiWbg-1" value="What is property?" style="rounded=1;whiteSpace=wrap;html=1;fontSize=16;labelBackgroundColor=none;fillColor=#FAE5C7;strokeColor=#0F8B8D;fontColor=#143642;" vertex="1" parent="1">
          <mxGeometry x="179.5" y="-100" width="120" height="60" as="geometry" />
        </mxCell>
        <mxCell id="ATN1gTDINGQfQ9HEiWbg-8" value="" style="edgeStyle=none;curved=1;rounded=0;orthogonalLoop=1;jettySize=auto;html=1;strokeColor=#A8201A;fontSize=12;fontColor=#143642;startSize=8;endSize=8;fillColor=#FAE5C7;" edge="1" parent="1" source="ATN1gTDINGQfQ9HEiWbg-4" target="ATN1gTDINGQfQ9HEiWbg-7">
          <mxGeometry relative="1" as="geometry" />
        </mxCell>
        <mxCell id="ATN1gTDINGQfQ9HEiWbg-4" value="&lt;b id=&quot;docs-internal-guid-55b00a47-7fff-b910-3565-e7e1c9804603&quot; style=&quot;font-weight:normal;&quot;&gt;&lt;span style=&quot;font-size: 12pt; font-family: Arial; color: rgb(32, 33, 36); background-color: transparent; font-weight: 700; font-style: normal; font-variant: normal; text-decoration: none; vertical-align: baseline;&quot;&gt;Property &lt;/span&gt;&lt;span style=&quot;font-size: 12pt; font-family: Arial; color: rgb(32, 33, 36); background-color: transparent; font-weight: 400; font-style: normal; font-variant: normal; text-decoration: none; vertical-align: baseline;&quot;&gt;–&lt;/span&gt;&lt;span style=&quot;font-size: 12pt; font-family: Arial; color: rgb(32, 33, 36); background-color: transparent; font-weight: 700; font-style: normal; font-variant: normal; text-decoration: none; vertical-align: baseline;&quot;&gt; standalone attribute &lt;/span&gt;&lt;span style=&quot;font-size: 12pt; font-family: Arial; color: rgb(32, 33, 36); background-color: transparent; font-weight: 400; font-style: normal; font-variant: normal; text-decoration: none; vertical-align: baseline;&quot;&gt;of an image.&lt;/span&gt;&lt;/b&gt;" style="shape=process;whiteSpace=wrap;html=1;backgroundOutline=1;fontSize=16;size=0.044481666590457776;align=center;verticalAlign=middle;labelBackgroundColor=none;fillColor=#FAE5C7;strokeColor=#0F8B8D;fontColor=#143642;rounded=1;" vertex="1" parent="1">
          <mxGeometry x="90" width="299" height="60" as="geometry" />
        </mxCell>
        <mxCell id="ATN1gTDINGQfQ9HEiWbg-18" value="" style="edgeStyle=none;curved=1;rounded=0;orthogonalLoop=1;jettySize=auto;html=1;strokeColor=#A8201A;fontSize=12;fontColor=#143642;startSize=8;endSize=8;fillColor=#FAE5C7;" edge="1" parent="1" source="ATN1gTDINGQfQ9HEiWbg-7" target="ATN1gTDINGQfQ9HEiWbg-9">
          <mxGeometry relative="1" as="geometry" />
        </mxCell>
        <mxCell id="ATN1gTDINGQfQ9HEiWbg-19" value="" style="edgeStyle=none;curved=1;rounded=0;orthogonalLoop=1;jettySize=auto;html=1;strokeColor=#A8201A;fontSize=12;fontColor=#143642;startSize=8;endSize=8;fillColor=#FAE5C7;" edge="1" parent="1" source="ATN1gTDINGQfQ9HEiWbg-7" target="ATN1gTDINGQfQ9HEiWbg-13">
          <mxGeometry relative="1" as="geometry" />
        </mxCell>
        <mxCell id="ATN1gTDINGQfQ9HEiWbg-7" value="&lt;br&gt;&lt;div style=&quot;font-size: 17px;&quot;&gt;&lt;span style=&quot;background-color: initial;&quot; id=&quot;docs-internal-guid-3eb15b09-7fff-70eb-80eb-f8ec9115af67&quot;&gt;&lt;span style=&quot;font-family: Arial; color: rgb(32, 33, 36); background-color: transparent; font-style: italic; font-variant-numeric: normal; font-variant-east-asian: normal; vertical-align: baseline;&quot;&gt;&lt;font style=&quot;font-size: 17px;&quot;&gt;What can and cannot be a property?&lt;/font&gt;&lt;/span&gt;&lt;/span&gt;&lt;/div&gt;&lt;div style=&quot;font-size: 17px;&quot;&gt;&lt;br&gt;&lt;/div&gt;" style="whiteSpace=wrap;html=1;fontSize=16;fillColor=#FAE5C7;strokeColor=#0F8B8D;fontColor=#143642;labelBackgroundColor=none;rounded=1;" vertex="1" parent="1">
          <mxGeometry x="94" y="110" width="291" height="57" as="geometry" />
        </mxCell>
        <mxCell id="ATN1gTDINGQfQ9HEiWbg-22" value="" style="edgeStyle=none;curved=1;rounded=0;orthogonalLoop=1;jettySize=auto;html=1;strokeColor=#A8201A;fontSize=12;fontColor=#143642;startSize=8;endSize=8;fillColor=#FAE5C7;" edge="1" parent="1" source="ATN1gTDINGQfQ9HEiWbg-9" target="ATN1gTDINGQfQ9HEiWbg-21">
          <mxGeometry relative="1" as="geometry" />
        </mxCell>
        <mxCell id="ATN1gTDINGQfQ9HEiWbg-24" value="" style="edgeStyle=none;curved=1;rounded=0;orthogonalLoop=1;jettySize=auto;html=1;strokeColor=#A8201A;fontSize=12;fontColor=#143642;startSize=8;endSize=8;fillColor=#FAE5C7;" edge="1" parent="1" source="ATN1gTDINGQfQ9HEiWbg-9" target="ATN1gTDINGQfQ9HEiWbg-23">
          <mxGeometry relative="1" as="geometry" />
        </mxCell>
        <mxCell id="ATN1gTDINGQfQ9HEiWbg-26" value="" style="edgeStyle=none;curved=1;rounded=0;orthogonalLoop=1;jettySize=auto;html=1;strokeColor=#A8201A;fontSize=12;fontColor=#143642;startSize=8;endSize=8;fillColor=#FAE5C7;" edge="1" parent="1" source="ATN1gTDINGQfQ9HEiWbg-9" target="ATN1gTDINGQfQ9HEiWbg-25">
          <mxGeometry relative="1" as="geometry" />
        </mxCell>
        <mxCell id="ATN1gTDINGQfQ9HEiWbg-28" value="" style="edgeStyle=none;curved=1;rounded=0;orthogonalLoop=1;jettySize=auto;html=1;strokeColor=#A8201A;fontSize=12;fontColor=#143642;startSize=8;endSize=8;fillColor=#FAE5C7;" edge="1" parent="1" source="ATN1gTDINGQfQ9HEiWbg-9" target="ATN1gTDINGQfQ9HEiWbg-25">
          <mxGeometry relative="1" as="geometry" />
        </mxCell>
        <mxCell id="ATN1gTDINGQfQ9HEiWbg-30" value="" style="edgeStyle=none;curved=1;rounded=0;orthogonalLoop=1;jettySize=auto;html=1;strokeColor=#A8201A;fontSize=12;fontColor=#143642;startSize=8;endSize=8;fillColor=#FAE5C7;" edge="1" parent="1" source="ATN1gTDINGQfQ9HEiWbg-9" target="ATN1gTDINGQfQ9HEiWbg-29">
          <mxGeometry relative="1" as="geometry" />
        </mxCell>
        <mxCell id="ATN1gTDINGQfQ9HEiWbg-9" value="CAN" style="ellipse;whiteSpace=wrap;html=1;fontSize=16;fillColor=#FAE5C7;strokeColor=#0F8B8D;fontColor=#143642;labelBackgroundColor=none;rounded=1;" vertex="1" parent="1">
          <mxGeometry x="-120" y="200" width="80" height="80" as="geometry" />
        </mxCell>
        <mxCell id="ATN1gTDINGQfQ9HEiWbg-33" value="" style="edgeStyle=none;curved=1;rounded=0;orthogonalLoop=1;jettySize=auto;html=1;strokeColor=#A8201A;fontSize=12;fontColor=#143642;startSize=8;endSize=8;fillColor=#FAE5C7;" edge="1" parent="1" source="ATN1gTDINGQfQ9HEiWbg-13" target="ATN1gTDINGQfQ9HEiWbg-32">
          <mxGeometry relative="1" as="geometry" />
        </mxCell>
        <mxCell id="ATN1gTDINGQfQ9HEiWbg-35" value="" style="edgeStyle=none;curved=1;rounded=0;orthogonalLoop=1;jettySize=auto;html=1;strokeColor=#A8201A;fontSize=12;fontColor=#143642;startSize=8;endSize=8;fillColor=#FAE5C7;" edge="1" parent="1" source="ATN1gTDINGQfQ9HEiWbg-13" target="ATN1gTDINGQfQ9HEiWbg-34">
          <mxGeometry relative="1" as="geometry" />
        </mxCell>
        <mxCell id="ATN1gTDINGQfQ9HEiWbg-13" value="CANNOT" style="ellipse;whiteSpace=wrap;html=1;fontSize=16;fillColor=#FAE5C7;strokeColor=#0F8B8D;fontColor=#143642;labelBackgroundColor=none;rounded=1;" vertex="1" parent="1">
          <mxGeometry x="520" y="200" width="80" height="80" as="geometry" />
        </mxCell>
        <mxCell id="ATN1gTDINGQfQ9HEiWbg-21" value="distinguishing attribute" style="whiteSpace=wrap;html=1;fontSize=16;fillColor=#FAE5C7;strokeColor=#0F8B8D;fontColor=#143642;labelBackgroundColor=none;rounded=1;" vertex="1" parent="1">
          <mxGeometry x="160" y="400" width="120" height="60" as="geometry" />
        </mxCell>
        <mxCell id="ATN1gTDINGQfQ9HEiWbg-23" value="texture" style="whiteSpace=wrap;html=1;fontSize=16;fillColor=#FAE5C7;strokeColor=#0F8B8D;fontColor=#143642;labelBackgroundColor=none;rounded=1;" vertex="1" parent="1">
          <mxGeometry x="-440" y="400" width="120" height="60" as="geometry" />
        </mxCell>
        <mxCell id="ATN1gTDINGQfQ9HEiWbg-25" value="style" style="whiteSpace=wrap;html=1;fontSize=16;fillColor=#FAE5C7;strokeColor=#0F8B8D;fontColor=#143642;labelBackgroundColor=none;rounded=1;" vertex="1" parent="1">
          <mxGeometry x="-240" y="400" width="120" height="60" as="geometry" />
        </mxCell>
        <mxCell id="ATN1gTDINGQfQ9HEiWbg-29" value="shape" style="whiteSpace=wrap;html=1;fontSize=16;fillColor=#FAE5C7;strokeColor=#0F8B8D;fontColor=#143642;labelBackgroundColor=none;rounded=1;" vertex="1" parent="1">
          <mxGeometry x="-40" y="400" width="120" height="60" as="geometry" />
        </mxCell>
        <mxCell id="ATN1gTDINGQfQ9HEiWbg-32" value="emoji / text" style="whiteSpace=wrap;html=1;fontSize=16;fillColor=#FAE5C7;strokeColor=#0F8B8D;fontColor=#143642;labelBackgroundColor=none;rounded=1;" vertex="1" parent="1">
          <mxGeometry x="680" y="400" width="120" height="60" as="geometry" />
        </mxCell>
        <mxCell id="ATN1gTDINGQfQ9HEiWbg-37" value="" style="edgeStyle=none;curved=1;rounded=0;orthogonalLoop=1;jettySize=auto;html=1;strokeColor=#A8201A;fontSize=12;fontColor=#143642;startSize=8;endSize=8;fillColor=#FAE5C7;" edge="1" parent="1" source="ATN1gTDINGQfQ9HEiWbg-34" target="ATN1gTDINGQfQ9HEiWbg-36">
          <mxGeometry relative="1" as="geometry" />
        </mxCell>
        <mxCell id="ATN1gTDINGQfQ9HEiWbg-34" value="pasted shapes&lt;br&gt;like" style="whiteSpace=wrap;html=1;fontSize=16;fillColor=#FAE5C7;strokeColor=#0F8B8D;fontColor=#143642;labelBackgroundColor=none;rounded=1;" vertex="1" parent="1">
          <mxGeometry x="500" y="400" width="120" height="60" as="geometry" />
        </mxCell>
        <mxCell id="ATN1gTDINGQfQ9HEiWbg-39" value="" style="edgeStyle=none;curved=1;rounded=0;orthogonalLoop=1;jettySize=auto;html=1;strokeColor=#A8201A;fontSize=12;fontColor=#143642;startSize=8;endSize=8;fillColor=#FAE5C7;" edge="1" parent="1" source="ATN1gTDINGQfQ9HEiWbg-36" target="ATN1gTDINGQfQ9HEiWbg-38">
          <mxGeometry relative="1" as="geometry" />
        </mxCell>
        <mxCell id="ATN1gTDINGQfQ9HEiWbg-36" value="" style="ellipse;whiteSpace=wrap;html=1;fontSize=16;fillColor=#FAE5C7;strokeColor=#0F8B8D;fontColor=#143642;labelBackgroundColor=none;rounded=1;" vertex="1" parent="1">
          <mxGeometry x="535" y="490" width="50" height="50" as="geometry" />
        </mxCell>
        <mxCell id="ATN1gTDINGQfQ9HEiWbg-41" value="" style="edgeStyle=none;curved=1;rounded=0;orthogonalLoop=1;jettySize=auto;html=1;strokeColor=#A8201A;fontSize=12;fontColor=#143642;startSize=8;endSize=8;fillColor=#FAE5C7;" edge="1" parent="1" source="ATN1gTDINGQfQ9HEiWbg-38" target="ATN1gTDINGQfQ9HEiWbg-40">
          <mxGeometry relative="1" as="geometry" />
        </mxCell>
        <mxCell id="ATN1gTDINGQfQ9HEiWbg-38" value="" style="whiteSpace=wrap;html=1;fontSize=16;fillColor=#FAE5C7;strokeColor=#0F8B8D;fontColor=#143642;labelBackgroundColor=none;rounded=1;" vertex="1" parent="1">
          <mxGeometry x="520" y="570" width="80" height="40" as="geometry" />
        </mxCell>
        <mxCell id="ATN1gTDINGQfQ9HEiWbg-43" value="" style="edgeStyle=none;curved=1;rounded=0;orthogonalLoop=1;jettySize=auto;html=1;strokeColor=#A8201A;fontSize=12;fontColor=#143642;startSize=8;endSize=8;fillColor=#FAE5C7;exitX=0.5;exitY=1;exitDx=0;exitDy=0;" edge="1" parent="1" source="ATN1gTDINGQfQ9HEiWbg-40" target="ATN1gTDINGQfQ9HEiWbg-42">
          <mxGeometry relative="1" as="geometry">
            <mxPoint x="560" y="730" as="targetPoint" />
            <Array as="points" />
          </mxGeometry>
        </mxCell>
        <mxCell id="ATN1gTDINGQfQ9HEiWbg-40" value="" style="triangle;whiteSpace=wrap;html=1;fontSize=16;fillColor=#FAE5C7;strokeColor=#0F8B8D;fontColor=#143642;labelBackgroundColor=none;rounded=1;" vertex="1" parent="1">
          <mxGeometry x="520" y="640" width="80" height="50" as="geometry" />
        </mxCell>
        <mxCell id="ATN1gTDINGQfQ9HEiWbg-42" value="another.." style="rhombus;whiteSpace=wrap;html=1;fontSize=16;fillColor=#FAE5C7;strokeColor=#0F8B8D;fontColor=#143642;labelBackgroundColor=none;rounded=1;direction=south;" vertex="1" parent="1">
          <mxGeometry x="520" y="710" width="80" height="80" as="geometry" />
        </mxCell>
      </root>
    </mxGraphModel>
  </diagram>
</mxfile>
